<svg width="52" height="28" viewBox="0 0 52 28" fill="none" xmlns="http://www.w3.org/2000/svg">
  <!-- e (Inter Bold風) -->
  <path d="M9.5 7C13.9 7 17 10.3 17 14.8C17 15.4 17 15.9 16.9 16.4H4.2C4.5 19.2 6.5 21 9.6 21C12 21 13.8 19.8 14.6 18L16.6 19.2C15.4 21.8 12.8 23.5 9.5 23.5C4.2 23.5 0.5 19.8 0.5 15.2C0.5 10.6 4.3 7 9.5 7ZM9.5 9.5C6.6 9.5 4.6 11.5 4.2 14H14.5C14.3 11.4 12.4 9.5 9.5 9.5Z" fill="#9CA3AF"/>
  <!-- / -->
  <path d="M21 23L28 5H30.5L23.5 23H21Z" fill="#D1D5DB"/>
  <!-- f (Inter Bold風、eと同じ高さに調整) -->
  <path d="M38.5 7H35V9.5H38.5V21H35V23.5H45V21H41V9.5H45V7H41V5.5C41 3.5 42 2.5 44 2.5H45V0H43.5C39.5 0 38.5 2 38.5 5.5V7Z" fill="#9CA3AF"/>
</svg>